<svg xmlns="http://www.w3.org/2000/svg" version="1.1" xmlns:xlink="http://www.w3.org/1999/xlink" xmlns:svgjs="http://svgjs.dev/svgjs" width="1000" height="999" viewBox="0 0 1000 999"><g transform="matrix(1,0,0,1,-0.215743440233382,-0.21552769679306039)"><svg viewBox="0 0 343 343" data-background-color="#ffffff" preserveAspectRatio="xMidYMid meet" height="999" width="1000" xmlns="http://www.w3.org/2000/svg" xmlns:xlink="http://www.w3.org/1999/xlink"><g id="tight-bounds" transform="matrix(1,0,0,1,0.0740000000000407,0.07400000000001228)"><svg viewBox="0 0 342.85155851775386 342.85155851775386" height="342.85155851775386" width="342.85155851775386"><g><svg></svg></g><g><svg viewBox="0 0 342.85155851775386 342.85155851775386" height="342.85155851775386" width="342.85155851775386"><g><path d="M0 171.426c0-94.676 76.75-171.426 171.426-171.426 94.676 0 171.426 76.75 171.426 171.426 0 94.676-76.75 171.426-171.426 171.426-94.676 0-171.426-76.75-171.426-171.426zM171.426 328.723c86.873 0 157.297-70.424 157.297-157.297 0-86.873-70.424-157.297-157.297-157.297-86.873 0-157.297 70.424-157.297 157.297 0 86.873 70.424 157.297 157.297 157.297z" data-fill-palette-color="tertiary" fill="#f47b2d" stroke="transparent"></path><ellipse rx="164.56874808852186" ry="164.56874808852186" cx="171.42577925887693" cy="171.42577925887693" fill="#f47b2d" stroke="transparent" stroke-width="0" fill-opacity="1" data-fill-palette-color="tertiary"></ellipse></g><g transform="matrix(1,0,0,1,64.84655864529837,93.09115541245792)"><svg viewBox="0 0 213.1584412271571 156.669247692838" height="156.669247692838" width="213.1584412271571"><g><svg viewBox="0 0 213.1584412271571 156.669247692838" height="156.669247692838" width="213.1584412271571"><g><svg viewBox="0 0 213.1584412271571 156.669247692838" height="156.669247692838" width="213.1584412271571"><g><svg viewBox="0 0 213.1584412271571 156.669247692838" height="156.669247692838" width="213.1584412271571"><g><svg viewBox="0 0 213.1584412271571 156.669247692838" height="156.669247692838" width="213.1584412271571"><g><svg viewBox="0 0 213.1584412271571 156.669247692838" height="156.669247692838" width="213.1584412271571"><g transform="matrix(1,0,0,1,0,0)"><svg width="213.1584412271571" viewBox="3.65 -34.9 48.300000000000004 35.5" height="156.669247692838" data-palette-color="#ffffff"><path d="M22.8 0L14.1-16 9.9-10.45 9.9 0 3.65 0 3.65-34.9 9.9-34.9 9.9-23.5 9.6-17.45 10.3-17.45 14.25-23.5 22.2-34.9 29.25-34.9 18.4-20.25 30.1 0 22.8 0ZM36-34.9L51.95-34.9 51.95-9Q51.95-4.45 49.32-1.93 46.7 0.6 41.85 0.6L41.85 0.6Q37.25 0.6 34.87-1.78 32.5-4.15 31.8-8.45L31.8-8.45 37.45-9.65Q37.85-7.1 38.85-5.95 39.85-4.8 41.8-4.8L41.8-4.8Q43.65-4.8 44.67-5.9 45.7-7 45.7-9.55L45.7-9.55 45.7-29.75 36-29.75 36-34.9Z" opacity="1" transform="matrix(1,0,0,1,0,0)" fill="#ffffff" class="undefined-text-0" data-fill-palette-color="quaternary" id="text-0"></path></svg></g></svg></g></svg></g></svg></g><g></g></svg></g></svg></g></svg></g></svg></g><defs></defs></svg><rect width="342.85155851775386" height="342.85155851775386" fill="none" stroke="none" visibility="hidden"></rect></g></svg></g></svg>